<svg width="51" height="48" viewBox="0 0 51 48" fill="none" xmlns="http://www.w3.org/2000/svg">
<path d="M49.9322 39.1293V39.1191C49.9322 39.1191 40.4587 30.2406 40.4529 30.2363C39.7018 29.5312 38.5006 29.5464 37.7616 30.241L33.4011 34.3493C31.7058 35.9403 29.5199 34.5285 25.324 31.3182C22.548 29.1943 19.3539 26.3382 16.5845 23.1181C14.641 20.8589 12.9224 18.4863 14.6979 16.8208C14.7025 16.8165 19.0764 12.7231 19.0756 12.7187L19.0789 12.7101C19.8638 11.9736 19.7878 10.8454 19.071 10.172V10.1618C19.071 10.1618 9.32377 1.02758 9.31834 1.02209C8.56727 0.317378 7.36647 0.333065 6.62711 1.0268L2.23437 5.14843C0.424607 7.27356 -3.5974 17.402 13.6455 33.9857C31.8099 51.457 43.5311 47.7197 45.549 45.7483C45.549 45.7483 49.9372 41.6796 49.9372 41.6757L49.9409 41.6674C50.7259 40.9305 50.6485 39.8031 49.9322 39.1293Z" fill="black"/>
</svg>
